<svg version="1.1" viewBox="0.0 0.0 1399.5013123359581 1170.0" fill="none" stroke="none" stroke-linecap="square" stroke-miterlimit="10" xmlns:xlink="http://www.w3.org/1999/xlink" xmlns="http://www.w3.org/2000/svg"><clipPath id="p.0"><path d="m0 0l1399.5013 0l0 1170.0l-1399.5013 0l0 -1170.0z" clip-rule="nonzero"/></clipPath><g clip-path="url(#p.0)"><path fill="#000000" fill-opacity="0.0" d="m0 0l1399.5013 0l0 1170.0l-1399.5013 0z" fill-rule="evenodd"/><path stroke="#000000" stroke-width="8.0" stroke-linecap="butt" d="m80.25197 82.70131l0 44.997375" fill-rule="nonzero"/><path stroke="#000000" stroke-width="4.0" stroke-linecap="butt" d="m258.43045 101.2l0 26.498688" fill-rule="nonzero"/><path stroke="#000000" stroke-width="8.0" stroke-linecap="butt" d="m436.60892 82.70131l0 44.997375" fill-rule="nonzero"/><path stroke="#000000" stroke-width="4.0" stroke-linecap="butt" d="m614.7874 101.2l0 26.498688" fill-rule="nonzero"/><path stroke="#000000" stroke-width="8.0" stroke-linecap="butt" d="m792.9659 82.70131l0 44.997375" fill-rule="nonzero"/><path stroke="#000000" stroke-width="4.0" stroke-linecap="butt" d="m971.14435 101.2l0 26.498688" fill-rule="nonzero"/><path stroke="#000000" stroke-width="8.0" stroke-linecap="butt" d="m1149.3229 82.70131l0 44.997375" fill-rule="nonzero"/><path stroke="#000000" stroke-width="8.0" stroke-linecap="butt" d="m76.25197 105.2l1251.748 0" fill-rule="nonzero"/><path fill="#000000" d="m1303.5013 80.0l40.0 24.0l-40.0 24.0z" fill-rule="evenodd"/><path stroke="#000000" stroke-width="1.0" stroke-linejoin="round" stroke-linecap="butt" d="m1303.5013 80.0l40.0 24.0l-40.0 24.0z" fill-rule="evenodd"/><path fill="#000000" fill-opacity="0.0" d="m311.5013 128.0l264.00003 0l0 56.0l-264.00003 0z" fill-rule="evenodd"/><path fill="#000000" d="m358.20444 165.955q0 1.25 0.109375 1.765625q0.109375 0.515625 0.3125 0.75q0.21875 0.234375 0.765625 0.421875q0.5625 0.1875 1.578125 0.3125q1.03125 0.109375 3.765625 0.1875l0 3.6875l-19.3125 0l0 -3.671875q3.484375 -0.15625 4.453125 -0.328125q0.984375 -0.1875 1.34375 -0.421875q0.375 -0.25 0.546875 -0.734375q0.1875 -0.5 0.1875 -1.96875l0 -19.0q0 -0.609375 -0.078125 -0.703125q-0.078125 -0.109375 -0.203125 -0.109375q-0.484375 0 -1.75 0.703125q-1.25 0.703125 -4.15625 2.625l-2.046875 -3.578125l12.046875 -7.1875l2.640625 0q-0.203125 3.28125 -0.203125 7.234375l0 20.015625zm32.882812 7.5q-5.625 0 -8.3125 -4.34375q-2.6875 -4.34375 -2.6875 -12.734375q0 -4.4375 0.78125 -7.71875q0.796875 -3.28125 2.296875 -5.515625q1.5 -2.234375 3.640625 -3.328125q2.15625 -1.109375 4.65625 -1.109375q5.6875 0 8.421875 4.3125q2.734375 4.3125 2.734375 12.625q0 8.59375 -2.921875 13.203125q-2.90625 4.609375 -8.609375 4.609375zm-4.4375 -17.78125q0 7.453125 1.25 10.625q1.265625 3.15625 3.5625 3.15625q2.171875 0 3.375 -2.953125q1.203125 -2.96875 1.203125 -9.828125q0 -5.28125 -0.671875 -8.4375q-0.65625 -3.171875 -1.671875 -4.34375q-1.015625 -1.1875 -2.34375 -1.1875q-1.25 0 -2.109375 0.75q-0.84375 0.75 -1.453125 2.390625q-0.59375 1.625 -0.875 4.125q-0.265625 2.484375 -0.265625 5.703125zm31.015625 17.78125q-5.625 0 -8.3125 -4.34375q-2.6875 -4.34375 -2.6875 -12.734375q0 -4.4375 0.78125 -7.71875q0.796875 -3.28125 2.296875 -5.515625q1.5 -2.234375 3.640625 -3.328125q2.15625 -1.109375 4.65625 -1.109375q5.6875 0 8.421875 4.3125q2.734375 4.3125 2.734375 12.625q0 8.59375 -2.921875 13.203125q-2.90625 4.609375 -8.609375 4.609375zm-4.4375 -17.78125q0 7.453125 1.25 10.625q1.265625 3.15625 3.5625 3.15625q2.171875 0 3.375 -2.953125q1.203125 -2.96875 1.203125 -9.828125q0 -5.28125 -0.671875 -8.4375q-0.65625 -3.171875 -1.671875 -4.34375q-1.015625 -1.1875 -2.34375 -1.1875q-1.25 0 -2.109375 0.75q-0.84375 0.75 -1.453125 2.390625q-0.59375 1.625 -0.875 4.125q-0.265625 2.484375 -0.265625 5.703125zm31.015625 17.78125q-5.625 0 -8.3125 -4.34375q-2.6875 -4.34375 -2.6875 -12.734375q0 -4.4375 0.78125 -7.71875q0.796875 -3.28125 2.296875 -5.515625q1.5 -2.234375 3.640625 -3.328125q2.15625 -1.109375 4.65625 -1.109375q5.6875 0 8.421875 4.3125q2.734375 4.3125 2.734375 12.625q0 8.59375 -2.921875 13.203125q-2.90625 4.609375 -8.609375 4.609375zm-4.4375 -17.78125q0 7.453125 1.25 10.625q1.265625 3.15625 3.5625 3.15625q2.171875 0 3.375 -2.953125q1.203125 -2.96875 1.203125 -9.828125q0 -5.28125 -0.671875 -8.4375q-0.65625 -3.171875 -1.671875 -4.34375q-1.015625 -1.1875 -2.34375 -1.1875q-1.25 0 -2.109375 0.75q-0.84375 0.75 -1.453125 2.390625q-0.59375 1.625 -0.875 4.125q-0.265625 2.484375 -0.265625 5.703125zm41.585938 17.78125q-5.625 0 -8.3125 -4.34375q-2.6875 -4.34375 -2.6875 -12.734375q0 -4.4375 0.78125 -7.71875q0.796875 -3.28125 2.296875 -5.515625q1.5 -2.234375 3.640625 -3.328125q2.15625 -1.109375 4.65625 -1.109375q5.6875 0 8.421875 4.3125q2.734375 4.3125 2.734375 12.625q0 8.59375 -2.921875 13.203125q-2.90625 4.609375 -8.609375 4.609375zm-4.4375 -17.78125q0 7.453125 1.25 10.625q1.265625 3.15625 3.5625 3.15625q2.171875 0 3.375 -2.953125q1.203125 -2.96875 1.203125 -9.828125q0 -5.28125 -0.671875 -8.4375q-0.65625 -3.171875 -1.671875 -4.34375q-1.015625 -1.1875 -2.34375 -1.1875q-1.25 0 -2.109375 0.75q-0.84375 0.75 -1.453125 2.390625q-0.59375 1.625 -0.875 4.125q-0.265625 2.484375 -0.265625 5.703125zm31.015625 17.78125q-5.625 0 -8.3125 -4.34375q-2.6875 -4.34375 -2.6875 -12.734375q0 -4.4375 0.78125 -7.71875q0.796875 -3.28125 2.296875 -5.515625q1.5 -2.234375 3.640625 -3.328125q2.15625 -1.109375 4.65625 -1.109375q5.6875305 0 8.4219055 4.3125q2.734375 4.3125 2.734375 12.625q0 8.59375 -2.921875 13.203125q-2.90625 4.609375 -8.6094055 4.609375zm-4.4375 -17.78125q0 7.453125 1.25 10.625q1.265625 3.15625 3.5625 3.15625q2.171875 0 3.375 -2.953125q1.2031555 -2.96875 1.2031555 -9.828125q0 -5.28125 -0.671875 -8.4375q-0.6562805 -3.171875 -1.6719055 -4.34375q-1.015625 -1.1875 -2.34375 -1.1875q-1.25 0 -2.109375 0.75q-0.84375 0.75 -1.453125 2.390625q-0.59375 1.625 -0.875 4.125q-0.265625 2.484375 -0.265625 5.703125zm31.015656 17.78125q-5.625 0 -8.3125 -4.34375q-2.6875 -4.34375 -2.6875 -12.734375q0 -4.4375 0.78125 -7.71875q0.796875 -3.28125 2.296875 -5.515625q1.5 -2.234375 3.640625 -3.328125q2.15625 -1.109375 4.65625 -1.109375q5.6875 0 8.421875 4.3125q2.734375 4.3125 2.734375 12.625q0 8.59375 -2.921875 13.203125q-2.90625 4.609375 -8.609375 4.609375zm-4.4375 -17.78125q0 7.453125 1.25 10.625q1.265625 3.15625 3.5625 3.15625q2.171875 0 3.375 -2.953125q1.203125 -2.96875 1.203125 -9.828125q0 -5.28125 -0.671875 -8.4375q-0.65625 -3.171875 -1.671875 -4.34375q-1.015625 -1.1875 -2.34375 -1.1875q-1.25 0 -2.109375 0.75q-0.84375 0.75 -1.453125 2.390625q-0.59375 1.625 -0.875 4.125q-0.265625 2.484375 -0.265625 5.703125z" fill-rule="nonzero"/><path fill="#000000" fill-opacity="0.0" d="m663.50134 128.0l264.0 0l0 56.0l-264.0 0z" fill-rule="evenodd"/><path fill="#000000" d="m709.3607 167.33q1.0625 0 1.59375 -0.109375q0.546875 -0.109375 0.765625 -0.28125q0.234375 -0.1875 0.40625 -0.578125q0.1875 -0.40625 0.78125 -2.125l3.78125 0l-0.53125 8.84375l-21.21875 0l0 -2.3125q1.109375 -2.75 2.859375 -5.390625q1.765625 -2.65625 4.96875 -6.203125q2.6875 -2.96875 3.859375 -4.484375q1.265625 -1.625 1.859375 -2.765625q0.59375 -1.140625 0.84375 -2.109375q0.25 -0.96875 0.25 -1.953125q0 -1.546875 -0.46875 -2.671875q-0.46875 -1.125 -1.375 -1.71875q-0.890625 -0.609375 -2.359375 -0.609375q-3.640625 0 -5.171875 4.875l-4.5625 0l0 -6.140625q3.5 -1.640625 6.078125 -2.265625q2.578125 -0.625 4.671875 -0.625q4.734375 0 7.265625 2.1875q2.546875 2.1875 2.546875 6.265625q0 1.375 -0.28125 2.53125q-0.28125 1.140625 -0.859375 2.265625q-0.5625 1.109375 -1.5 2.34375q-0.921875 1.21875 -2.015625 2.4375q-1.09375 1.21875 -3.75 4.046875q-4.390625 4.640625 -5.515625 6.546875l7.078125 0zm33.726562 6.125q-5.625 0 -8.3125 -4.34375q-2.6875 -4.34375 -2.6875 -12.734375q0 -4.4375 0.78125 -7.71875q0.796875 -3.28125 2.296875 -5.515625q1.5 -2.234375 3.640625 -3.328125q2.15625 -1.109375 4.65625 -1.109375q5.6875 0 8.421875 4.3125q2.734375 4.3125 2.734375 12.625q0 8.59375 -2.921875 13.203125q-2.90625 4.609375 -8.609375 4.609375zm-4.4375 -17.78125q0 7.453125 1.25 10.625q1.265625 3.15625 3.5625 3.15625q2.171875 0 3.375 -2.953125q1.203125 -2.96875 1.203125 -9.828125q0 -5.28125 -0.671875 -8.4375q-0.65625 -3.171875 -1.671875 -4.34375q-1.015625 -1.1875 -2.34375 -1.1875q-1.25 0 -2.109375 0.75q-0.84375 0.75 -1.453125 2.390625q-0.59375 1.625 -0.875 4.125q-0.265625 2.484375 -0.265625 5.703125zm31.015625 17.78125q-5.625 0 -8.3125 -4.34375q-2.6875 -4.34375 -2.6875 -12.734375q0 -4.4375 0.78125 -7.71875q0.796875 -3.28125 2.296875 -5.515625q1.5 -2.234375 3.640625 -3.328125q2.15625 -1.109375 4.65625 -1.109375q5.6875 0 8.421875 4.3125q2.734375 4.3125 2.734375 12.625q0 8.59375 -2.921875 13.203125q-2.90625 4.609375 -8.609375 4.609375zm-4.4375 -17.78125q0 7.453125 1.25 10.625q1.265625 3.15625 3.5625 3.15625q2.171875 0 3.375 -2.953125q1.203125 -2.96875 1.203125 -9.828125q0 -5.28125 -0.671875 -8.4375q-0.65625 -3.171875 -1.671875 -4.34375q-1.015625 -1.1875 -2.34375 -1.1875q-1.25 0 -2.109375 0.75q-0.84375 0.75 -1.453125 2.390625q-0.59375 1.625 -0.875 4.125q-0.265625 2.484375 -0.265625 5.703125zm31.015625 17.78125q-5.625 0 -8.3125 -4.34375q-2.6875 -4.34375 -2.6875 -12.734375q0 -4.4375 0.78125 -7.71875q0.796875 -3.28125 2.296875 -5.515625q1.5 -2.234375 3.640625 -3.328125q2.15625 -1.109375 4.65625 -1.109375q5.6875 0 8.421875 4.3125q2.734375 4.3125 2.734375 12.625q0 8.59375 -2.921875 13.203125q-2.90625 4.609375 -8.609375 4.609375zm-4.4375 -17.78125q0 7.453125 1.25 10.625q1.265625 3.15625 3.5625 3.15625q2.171875 0 3.375 -2.953125q1.203125 -2.96875 1.203125 -9.828125q0 -5.28125 -0.671875 -8.4375q-0.65625 -3.171875 -1.671875 -4.34375q-1.015625 -1.1875 -2.34375 -1.1875q-1.25 0 -2.109375 0.75q-0.84375 0.75 -1.453125 2.390625q-0.59375 1.625 -0.875 4.125q-0.265625 2.484375 -0.265625 5.703125zm41.585938 17.78125q-5.625 0 -8.3125 -4.34375q-2.6875 -4.34375 -2.6875 -12.734375q0 -4.4375 0.78125 -7.71875q0.796875 -3.28125 2.296875 -5.515625q1.5 -2.234375 3.640625 -3.328125q2.15625 -1.109375 4.65625 -1.109375q5.6875 0 8.421875 4.3125q2.734375 4.3125 2.734375 12.625q0 8.59375 -2.921875 13.203125q-2.90625 4.609375 -8.609375 4.609375zm-4.4375 -17.78125q0 7.453125 1.25 10.625q1.265625 3.15625 3.5625 3.15625q2.171875 0 3.375 -2.953125q1.203125 -2.96875 1.203125 -9.828125q0 -5.28125 -0.671875 -8.4375q-0.65625 -3.171875 -1.671875 -4.34375q-1.015625 -1.1875 -2.34375 -1.1875q-1.25 0 -2.109375 0.75q-0.84375 0.75 -1.453125 2.390625q-0.59375 1.625 -0.875 4.125q-0.265625 2.484375 -0.265625 5.703125zm31.015625 17.78125q-5.625 0 -8.3125 -4.34375q-2.6875 -4.34375 -2.6875 -12.734375q0 -4.4375 0.78125 -7.71875q0.796875 -3.28125 2.296875 -5.515625q1.5 -2.234375 3.640625 -3.328125q2.15625 -1.109375 4.65625 -1.109375q5.6875 0 8.421875 4.3125q2.734375 4.3125 2.734375 12.625q0 8.59375 -2.921875 13.203125q-2.90625 4.609375 -8.609375 4.609375zm-4.4375 -17.78125q0 7.453125 1.25 10.625q1.265625 3.15625 3.5625 3.15625q2.171875 0 3.375 -2.953125q1.203125 -2.96875 1.203125 -9.828125q0 -5.28125 -0.671875 -8.4375q-0.65625 -3.171875 -1.671875 -4.34375q-1.015625 -1.1875 -2.34375 -1.1875q-1.25 0 -2.109375 0.75q-0.84375 0.75 -1.453125 2.390625q-0.59375 1.625 -0.875 4.125q-0.265625 2.484375 -0.265625 5.703125zm31.015625 17.78125q-5.625 0 -8.3125 -4.34375q-2.6875 -4.34375 -2.6875 -12.734375q0 -4.4375 0.78125 -7.71875q0.796875 -3.28125 2.296875 -5.515625q1.5 -2.234375 3.640625 -3.328125q2.15625 -1.109375 4.65625 -1.109375q5.6875 0 8.421875 4.3125q2.734375 4.3125 2.734375 12.625q0 8.59375 -2.921875 13.203125q-2.90625 4.609375 -8.609375 4.609375zm-4.4375 -17.78125q0 7.453125 1.25 10.625q1.265625 3.15625 3.5625 3.15625q2.171875 0 3.375 -2.953125q1.203125 -2.96875 1.203125 -9.828125q0 -5.28125 -0.671875 -8.4375q-0.65625 -3.171875 -1.671875 -4.34375q-1.015625 -1.1875 -2.34375 -1.1875q-1.25 0 -2.109375 0.75q-0.84375 0.75 -1.453125 2.390625q-0.59375 1.625 -0.875 4.125q-0.265625 2.484375 -0.265625 5.703125z" fill-rule="nonzero"/><path fill="#000000" fill-opacity="0.0" d="m1023.50134 136.0l264.0 0l0 56.0l-264.0 0z" fill-rule="evenodd"/><path fill="#000000" d="m1055.642 155.72063l0 -6.078125q3.375 -1.609375 5.84375 -2.265625q2.484375 -0.671875 4.8125 -0.671875q2.84375 0 5.0625 0.921875q2.21875 0.90625 3.4375 2.703125q1.234375 1.78125 1.234375 4.21875q0 2.25 -0.90625 3.96875q-0.90625 1.703125 -2.46875 2.9375q-1.5625 1.21875 -4.046875 1.65625l-0.078125 -0.21875q1.46875 -0.5 2.921875 0.203125q1.46875 0.6875 2.625 1.796875q1.15625 1.09375 1.859375 2.65625q0.703125 1.546875 0.703125 3.53125q0 2.984375 -1.328125 5.34375q-1.3125 2.34375 -4.0 3.6875q-2.671875 1.34375 -6.40625 1.34375q-2.109375 0 -4.53125 -0.46875q-2.421875 -0.484375 -5.09375 -1.515625l0 -6.65625l4.53125 0q0.96875 2.84375 2.0625 3.75q1.09375 0.890625 3.0625 0.890625q2.609375 0 3.875 -1.359375q1.28125 -1.359375 1.28125 -4.21875q0 -2.96875 -1.75 -4.5q-1.75 -1.53125 -5.359375 -1.53125l-3.109375 0l0 -4.0q3.921875 -0.234375 5.859375 -1.15625q1.953125 -0.9375 2.84375 -2.3125q0.90625 -1.375 0.90625 -3.09375q0 -2.203125 -1.09375 -3.3125q-1.09375 -1.109375 -3.3125 -1.109375q-1.828125 0 -2.953125 0.984375q-1.125 0.96875 -1.90625 3.875l-4.578125 0zm47.445312 25.734375q-5.625 0 -8.3125 -4.34375q-2.6875 -4.34375 -2.6875 -12.734375q0 -4.4375 0.78125 -7.71875q0.796875 -3.28125 2.296875 -5.515625q1.5 -2.234375 3.640625 -3.328125q2.15625 -1.109375 4.65625 -1.109375q5.6875 0 8.421875 4.3125q2.734375 4.3125 2.734375 12.625q0 8.59375 -2.921875 13.203125q-2.90625 4.609375 -8.609375 4.609375zm-4.4375 -17.78125q0 7.453125 1.25 10.625q1.265625 3.15625 3.5625 3.15625q2.171875 0 3.375 -2.953125q1.203125 -2.96875 1.203125 -9.828125q0 -5.28125 -0.671875 -8.4375q-0.65625 -3.171875 -1.671875 -4.34375q-1.015625 -1.1875 -2.34375 -1.1875q-1.25 0 -2.109375 0.75q-0.84375 0.75 -1.453125 2.390625q-0.59375 1.625 -0.875 4.125q-0.265625 2.484375 -0.265625 5.703125zm31.015625 17.78125q-5.625 0 -8.3125 -4.34375q-2.6875 -4.34375 -2.6875 -12.734375q0 -4.4375 0.78125 -7.71875q0.796875 -3.28125 2.296875 -5.515625q1.5 -2.234375 3.640625 -3.328125q2.15625 -1.109375 4.65625 -1.109375q5.6875 0 8.421875 4.3125q2.734375 4.3125 2.734375 12.625q0 8.59375 -2.921875 13.203125q-2.90625 4.609375 -8.609375 4.609375zm-4.4375 -17.78125q0 7.453125 1.25 10.625q1.265625 3.15625 3.5625 3.15625q2.171875 0 3.375 -2.953125q1.203125 -2.96875 1.203125 -9.828125q0 -5.28125 -0.671875 -8.4375q-0.65625 -3.171875 -1.671875 -4.34375q-1.015625 -1.1875 -2.34375 -1.1875q-1.25 0 -2.109375 0.75q-0.84375 0.75 -1.453125 2.390625q-0.59375 1.625 -0.875 4.125q-0.265625 2.484375 -0.265625 5.703125zm31.015625 17.78125q-5.625 0 -8.3125 -4.34375q-2.6875 -4.34375 -2.6875 -12.734375q0 -4.4375 0.78125 -7.71875q0.796875 -3.28125 2.296875 -5.515625q1.5 -2.234375 3.640625 -3.328125q2.15625 -1.109375 4.65625 -1.109375q5.6875 0 8.421875 4.3125q2.734375 4.3125 2.734375 12.625q0 8.59375 -2.921875 13.203125q-2.90625 4.609375 -8.609375 4.609375zm-4.4375 -17.78125q0 7.453125 1.25 10.625q1.265625 3.15625 3.5625 3.15625q2.171875 0 3.375 -2.953125q1.203125 -2.96875 1.203125 -9.828125q0 -5.28125 -0.671875 -8.4375q-0.65625 -3.171875 -1.671875 -4.34375q-1.015625 -1.1875 -2.34375 -1.1875q-1.25 0 -2.109375 0.75q-0.84375 0.75 -1.453125 2.390625q-0.59375 1.625 -0.875 4.125q-0.265625 2.484375 -0.265625 5.703125zm41.585938 17.78125q-5.625 0 -8.3125 -4.34375q-2.6875 -4.34375 -2.6875 -12.734375q0 -4.4375 0.78125 -7.71875q0.796875 -3.28125 2.296875 -5.515625q1.5 -2.234375 3.640625 -3.328125q2.15625 -1.109375 4.65625 -1.109375q5.6875 0 8.421875 4.3125q2.734375 4.3125 2.734375 12.625q0 8.59375 -2.921875 13.203125q-2.90625 4.609375 -8.609375 4.609375zm-4.4375 -17.78125q0 7.453125 1.25 10.625q1.265625 3.15625 3.5625 3.15625q2.171875 0 3.375 -2.953125q1.203125 -2.96875 1.203125 -9.828125q0 -5.28125 -0.671875 -8.4375q-0.65625 -3.171875 -1.671875 -4.34375q-1.015625 -1.1875 -2.34375 -1.1875q-1.25 0 -2.109375 0.75q-0.84375 0.75 -1.453125 2.390625q-0.59375 1.625 -0.875 4.125q-0.265625 2.484375 -0.265625 5.703125zm31.015625 17.78125q-5.625 0 -8.3125 -4.34375q-2.6875 -4.34375 -2.6875 -12.734375q0 -4.4375 0.78125 -7.71875q0.796875 -3.28125 2.296875 -5.515625q1.5 -2.234375 3.640625 -3.328125q2.15625 -1.109375 4.65625 -1.109375q5.6875 0 8.421875 4.3125q2.734375 4.3125 2.734375 12.625q0 8.59375 -2.921875 13.203125q-2.90625 4.609375 -8.609375 4.609375zm-4.4375 -17.78125q0 7.453125 1.25 10.625q1.265625 3.15625 3.5625 3.15625q2.171875 0 3.375 -2.953125q1.203125 -2.96875 1.203125 -9.828125q0 -5.28125 -0.671875 -8.4375q-0.65625 -3.171875 -1.671875 -4.34375q-1.015625 -1.1875 -2.34375 -1.1875q-1.25 0 -2.109375 0.75q-0.84375 0.75 -1.453125 2.390625q-0.59375 1.625 -0.875 4.125q-0.265625 2.484375 -0.265625 5.703125zm31.015625 17.78125q-5.625 0 -8.3125 -4.34375q-2.6875 -4.34375 -2.6875 -12.734375q0 -4.4375 0.78125 -7.71875q0.796875 -3.28125 2.296875 -5.515625q1.5 -2.234375 3.640625 -3.328125q2.15625 -1.109375 4.65625 -1.109375q5.6875 0 8.421875 4.3125q2.734375 4.3125 2.734375 12.625q0 8.59375 -2.921875 13.203125q-2.90625 4.609375 -8.609375 4.609375zm-4.4375 -17.78125q0 7.453125 1.25 10.625q1.265625 3.15625 3.5625 3.15625q2.171875 0 3.375 -2.953125q1.203125 -2.96875 1.203125 -9.828125q0 -5.28125 -0.671875 -8.4375q-0.65625 -3.171875 -1.671875 -4.34375q-1.015625 -1.1875 -2.34375 -1.1875q-1.25 0 -2.109375 0.75q-0.84375 0.75 -1.453125 2.390625q-0.59375 1.625 -0.875 4.125q-0.265625 2.484375 -0.265625 5.703125z" fill-rule="nonzero"/><path fill="#000000" fill-opacity="0.0" d="m570.874 11.136483l88.0 0l0 72.062996l-88.0 0z" fill-rule="evenodd"/><path fill="#000000" d="m596.45215 24.295479l18.3125 0q5.4375 0 8.109375 0.453125q2.671875 0.453125 4.78125 1.890625q2.109375 1.4375 3.515625 3.828125q1.40625 2.390625 1.40625 5.359375q0 3.21875 -1.734375 5.90625q-1.734375 2.6875 -4.703125 4.03125q4.1875 1.21875 6.4375 4.15625q2.25 2.9375 2.25 6.90625q0 3.125 -1.453125 6.078125q-1.453125 2.953125 -3.96875 4.71875q-2.515625 1.765625 -6.203125 2.171875q-2.3125 0.25 -11.15625 0.3125l-15.59375 0l0 -45.8125zm9.25 7.625l0 10.59375l6.0625 0q5.40625 0 6.71875 -0.15625q2.375 -0.28125 3.734375 -1.640625q1.359375 -1.359375 1.359375 -3.578125q0 -2.125 -1.171875 -3.453125q-1.171875 -1.328125 -3.484375 -1.609375q-1.375 -0.15625 -7.90625 -0.15625l-5.3125 0zm0 18.21875l0 12.25l8.5625 0q5.0 0 6.34375 -0.28125q2.0625 -0.375 3.359375 -1.828125q1.296875 -1.453125 1.296875 -3.890625q0 -2.0625 -1.0 -3.5q-1.0 -1.4375 -2.890625 -2.09375q-1.890625 -0.65625 -8.203125 -0.65625l-7.46875 0z" fill-rule="nonzero"/><path fill="#cfe2f3" d="m595.4724 105.59843l0 0c0 -10.715195 8.686401 -19.401573 19.401611 -19.401573l0 0c5.14563 0 10.080505 2.0440826 13.718994 5.6825867c3.6384888 3.638504 5.682556 8.573364 5.682556 13.7189865l0 0c0 10.715195 -8.68634 19.401573 -19.40155 19.401573l0 0c-10.71521 0 -19.401611 -8.6863785 -19.401611 -19.401573z" fill-rule="evenodd"/><path stroke="#000000" stroke-width="4.0" stroke-linejoin="round" stroke-linecap="butt" d="m595.4724 105.59843l0 0c0 -10.715195 8.686401 -19.401573 19.401611 -19.401573l0 0c5.14563 0 10.080505 2.0440826 13.718994 5.6825867c3.6384888 3.638504 5.682556 8.573364 5.682556 13.7189865l0 0c0 10.715195 -8.68634 19.401573 -19.40155 19.401573l0 0c-10.71521 0 -19.401611 -8.6863785 -19.401611 -19.401573z" fill-rule="evenodd"/><path fill="#000000" fill-opacity="0.0" d="m56.0 128.0l47.11811 0l0 56.0l-47.11811 0z" fill-rule="evenodd"/><path fill="#000000" d="m80.30124 173.455q-5.625 0 -8.3125 -4.34375q-2.6875 -4.34375 -2.6875 -12.734375q0 -4.4375 0.78125 -7.71875q0.796875 -3.28125 2.296875 -5.515625q1.5 -2.234375 3.640625 -3.328125q2.15625 -1.109375 4.65625 -1.109375q5.6875 0 8.421875 4.3125q2.734375 4.3125 2.734375 12.625q0 8.59375 -2.921875 13.203125q-2.90625 4.609375 -8.609375 4.609375zm-4.4375 -17.78125q0 7.453125 1.25 10.625q1.265625 3.15625 3.5625 3.15625q2.171875 0 3.375 -2.953125q1.203125 -2.96875 1.203125 -9.828125q0 -5.28125 -0.671875 -8.4375q-0.65625 -3.171875 -1.671875 -4.34375q-1.015625 -1.1875 -2.34375 -1.1875q-1.25 0 -2.109375 0.75q-0.84375 0.75 -1.453125 2.390625q-0.59375 1.625 -0.875 4.125q-0.265625 2.484375 -0.265625 5.703125z" fill-rule="nonzero"/></g></svg>